<svg width="224.750031" height="28.671875" viewBox="0 0 224.75 28.6719" fill="none" xmlns="http://www.w3.org/2000/svg" xmlns:xlink="http://www.w3.org/1999/xlink">
	<desc>
			Created with Pixso.
	</desc>
	<defs/>
	<path id="KinoMonster" d="M61.69 28.35Q62.75 28.67 63.9 28.67Q65.26 28.67 66.47 28.24Q67.18 27.98 67.85 27.57Q68.59 27.11 69.21 26.53Q70.07 25.71 70.7 24.64Q71.07 24.01 71.31 23.32Q71.75 22.06 71.75 20.64L71.71 7.96Q71.71 6.46 71.22 5.13Q70.99 4.52 70.65 3.95Q70.04 2.91 69.19 2.11Q68.57 1.53 67.83 1.07Q67.35 0.77 66.84 0.56Q65.49 0 63.9 0Q62.81 0 61.8 0.29Q60.86 0.56 59.99 1.08Q59.04 1.65 58.3 2.43Q57.64 3.11 57.14 3.96Q56.86 4.43 56.65 4.92Q56.07 6.32 56.07 7.96L56.03 20.64Q56.03 21.96 56.43 23.16Q56.69 23.93 57.11 24.65Q57.74 25.71 58.59 26.51Q59.22 27.11 59.97 27.57Q60.8 28.08 61.69 28.35ZM108.62 28.35Q109.68 28.67 110.83 28.67Q112.19 28.67 113.4 28.24Q114.11 27.98 114.77 27.57Q115.52 27.11 116.14 26.53Q117 25.71 117.62 24.64Q117.99 24.01 118.23 23.32Q118.68 22.06 118.68 20.64L118.64 7.96Q118.64 6.46 118.14 5.13Q117.91 4.52 117.58 3.95Q116.96 2.91 116.12 2.11Q115.5 1.53 114.75 1.07Q114.27 0.77 113.76 0.56Q112.41 0 110.83 0Q109.73 0 108.73 0.29Q107.79 0.56 106.92 1.08Q105.97 1.65 105.23 2.43Q104.57 3.11 104.07 3.96Q103.79 4.43 103.58 4.92Q103 6.32 103 7.96L102.96 20.64Q102.96 21.96 103.35 23.16Q103.61 23.93 104.04 24.65Q104.66 25.71 105.52 26.51Q106.15 27.11 106.9 27.57Q107.73 28.08 108.62 28.35ZM152.03 28.35Q153.09 28.67 154.24 28.67Q155.69 28.67 156.97 28.19Q157.6 27.96 158.18 27.61Q158.92 27.17 159.54 26.6Q160.41 25.8 161.03 24.74Q161.24 24.39 161.41 24.01Q162.09 22.48 162.09 20.64Q162.09 18.46 161.1 16.91Q161.02 16.78 160.93 16.66Q159.77 15.03 157.77 13.92Q157.66 13.86 157.09 13.56Q156.52 13.26 155.83 12.88Q155.14 12.5 154.57 12.18Q154 11.87 153.85 11.79Q152.36 10.99 151.81 10.11Q151.25 9.23 151.25 7.92Q151.25 7.27 151.48 6.71Q151.69 6.16 152.13 5.7Q152.63 5.17 153.24 4.94Q153.71 4.76 154.24 4.76Q154.79 4.76 155.27 4.94Q155.85 5.16 156.33 5.64Q156.59 5.9 156.77 6.2Q157.21 6.93 157.21 7.92L157.25 11.21Q157.25 11.28 157.28 11.32Q157.32 11.36 157.4 11.36L161.89 11.36Q161.97 11.36 162.01 11.32Q162.05 11.28 162.05 11.21L162.05 7.92Q162.05 6.34 161.5 4.97Q161.28 4.44 160.99 3.94Q160.47 3.07 159.77 2.37Q159.05 1.64 158.14 1.09Q157.44 0.67 156.69 0.42Q155.53 0.03 154.24 0.03Q153.14 0.03 152.13 0.33Q151.23 0.59 150.4 1.08Q149.64 1.53 149 2.11Q148.16 2.89 147.54 3.9Q147.2 4.45 146.97 5.05Q146.45 6.38 146.45 7.92Q146.45 9.99 147.22 11.7Q147.35 12 147.51 12.29Q147.56 12.38 147.61 12.46Q148.67 14.29 150.76 15.52Q151.37 15.85 152.01 16.22Q152.66 16.58 153.34 16.95Q154.02 17.32 154.52 17.6Q155.02 17.89 155.33 18.08Q156.97 19.02 157.21 20.23Q157.25 20.43 157.25 20.64Q157.25 21.2 157.07 21.71Q156.86 22.34 156.37 22.88Q155.87 23.42 155.25 23.66Q154.78 23.84 154.24 23.84Q153.72 23.84 153.26 23.67Q152.64 23.44 152.13 22.9Q151.71 22.44 151.49 21.91Q151.25 21.32 151.25 20.64L151.25 18.8Q151.25 18.66 151.18 18.61Q151.15 18.59 151.09 18.59L146.6 18.59Q146.51 18.59 146.46 18.63Q146.41 18.69 146.41 18.8L146.41 20.64Q146.41 22.01 146.82 23.23Q147.07 23.97 147.47 24.65Q148.06 25.66 148.87 26.45Q149.52 27.09 150.31 27.57Q151.14 28.08 152.03 28.35ZM0.15 28.28L4.68 28.28Q4.74 28.28 4.78 28.25Q4.84 28.2 4.84 28.08L4.84 18.55L6.23 16.36L11.64 28.12Q11.65 28.18 11.69 28.22Q11.75 28.28 11.87 28.28L16.75 28.28Q16.94 28.28 16.97 28.21Q16.98 28.18 16.95 28.12L9.19 11.64L16.11 0.6Q16.16 0.52 16.14 0.48Q16.12 0.44 16.03 0.44L11.44 0.44Q11.3 0.44 11.15 0.6L4.88 10.11L4.88 0.64Q4.88 0.52 4.82 0.47Q4.78 0.44 4.72 0.44L0.23 0.44Q0.17 0.44 0.13 0.47Q0.07 0.52 0.07 0.64L0 28.08Q0 28.2 0.05 28.25Q0.09 28.28 0.15 28.28ZM22.54 28.28L27.07 28.28Q27.13 28.28 27.17 28.25Q27.23 28.2 27.23 28.08L27.19 0.6Q27.19 0.52 27.15 0.48Q27.11 0.44 27.03 0.44L22.54 0.44Q22.46 0.44 22.42 0.48Q22.38 0.52 22.38 0.6L22.35 28.08Q22.35 28.18 22.39 28.23Q22.44 28.28 22.54 28.28ZM34.7 28.28L38.7 28.28Q38.92 28.28 39.01 28.17Q39.07 28.09 39.07 27.96L38.78 13.55L45.71 28.28L49.23 28.28Q49.31 28.28 49.35 28.24Q49.42 28.18 49.42 28.04L49.38 0.76Q49.38 0.56 49.29 0.48Q49.23 0.44 49.15 0.44L45.18 0.44Q44.99 0.44 44.9 0.54Q44.83 0.62 44.83 0.76L45.03 16.21L38.27 0.44L34.66 0.44Q34.5 0.44 34.42 0.52Q34.34 0.6 34.34 0.76L34.38 28Q34.38 28.12 34.44 28.19Q34.52 28.28 34.7 28.28ZM78.52 28.28L83.05 28.28Q83.11 28.28 83.15 28.25Q83.2 28.2 83.2 28.08L83.24 7.67L87.4 13.76L91.6 7.67L91.64 28.08Q91.64 28.2 91.7 28.25Q91.74 28.28 91.8 28.28L96.33 28.28Q96.39 28.28 96.43 28.25Q96.48 28.2 96.48 28.08L96.41 0.6Q96.41 0.53 96.37 0.49Q96.33 0.44 96.23 0.44L91.33 0.44Q91.26 0.44 91.21 0.47Q91.11 0.5 91.04 0.6L87.4 5.87L83.75 0.6Q83.66 0.48 83.55 0.45Q83.51 0.44 83.48 0.44L78.59 0.44Q78.52 0.44 78.48 0.48Q78.44 0.52 78.44 0.6L78.36 28.08Q78.36 28.2 78.42 28.25Q78.46 28.28 78.52 28.28ZM125.64 28.28L129.64 28.28Q129.86 28.28 129.95 28.17Q130.01 28.09 130.01 27.96L129.72 13.55L136.65 28.28L140.17 28.28Q140.25 28.28 140.3 28.24Q140.37 28.18 140.37 28.04L140.33 0.76Q140.33 0.56 140.23 0.48Q140.17 0.44 140.09 0.44L136.13 0.44Q135.93 0.44 135.84 0.54Q135.78 0.62 135.78 0.76L135.97 16.21L129.21 0.44L125.6 0.44Q125.44 0.44 125.37 0.52Q125.29 0.6 125.29 0.76L125.33 28Q125.33 28.12 125.38 28.19Q125.46 28.28 125.64 28.28ZM172.49 28.28L177 28.28Q177.06 28.28 177.1 28.25Q177.15 28.2 177.15 28.08L177.12 5.27L182.37 5.27Q182.43 5.27 182.47 5.24Q182.53 5.19 182.53 5.07L182.53 0.6Q182.53 0.55 182.5 0.51Q182.45 0.44 182.31 0.44L167.12 0.44Q167.04 0.44 167 0.48Q166.96 0.52 166.96 0.6L166.92 5.07Q166.92 5.17 166.97 5.22Q167.02 5.27 167.12 5.27L172.31 5.27L172.31 28.08Q172.31 28.19 172.36 28.24Q172.41 28.28 172.49 28.28ZM188.22 28.28L201.15 28.28Q201.22 28.28 201.26 28.24Q201.3 28.2 201.3 28.12L201.3 23.55Q201.3 23.43 201.24 23.38Q201.21 23.35 201.15 23.35L192.9 23.35L192.9 16.36L201.15 16.36Q201.22 16.36 201.26 16.32Q201.3 16.28 201.3 16.21L201.26 11.67Q201.26 11.6 201.22 11.56Q201.18 11.52 201.11 11.52L192.9 11.52L192.9 5.27L201.11 5.27Q201.18 5.27 201.22 5.23Q201.26 5.19 201.26 5.11L201.26 0.64Q201.26 0.52 201.2 0.47Q201.17 0.44 201.11 0.44L188.25 0.44Q188.18 0.44 188.14 0.48Q188.1 0.52 188.1 0.6L188.06 28.08Q188.06 28.2 188.12 28.25Q188.15 28.28 188.22 28.28ZM208.61 28.28L213.14 28.28Q213.2 28.28 213.24 28.25Q213.3 28.2 213.3 28.08L213.34 16.32L215.98 16.32Q216.75 16.32 217.4 16.61Q217.99 16.87 218.48 17.38Q219.01 17.93 219.26 18.59Q219.49 19.19 219.49 19.88L219.49 28.16Q219.49 28.2 219.51 28.23Q219.55 28.28 219.65 28.28L224.18 28.28Q224.28 28.28 224.33 28.23Q224.37 28.18 224.37 28.08L224.34 19.88Q224.34 18.24 223.79 16.82Q223.24 15.43 222.17 14.23Q222.66 13.84 223.25 13.02Q223.85 12.2 224.3 11.01Q224.75 9.82 224.75 8.35Q224.75 6.66 224.13 5.23Q223.93 4.77 223.66 4.33Q223.16 3.51 222.5 2.84Q221.74 2.06 220.76 1.5Q220.06 1.09 219.32 0.85Q218.11 0.44 216.78 0.44L208.69 0.44Q208.61 0.44 208.57 0.48Q208.53 0.52 208.53 0.6L208.46 28.08Q208.46 28.2 208.51 28.25Q208.55 28.28 208.61 28.28ZM64.72 23.72Q64.33 23.84 63.9 23.84Q63.38 23.84 62.92 23.67Q62.3 23.44 61.79 22.9Q61.37 22.44 61.15 21.91Q60.91 21.32 60.91 20.64L60.91 7.96Q60.91 7.08 61.28 6.39Q61.48 6.02 61.79 5.7Q62.26 5.22 62.83 4.99Q63.33 4.8 63.9 4.8Q64.62 4.8 65.19 5.08Q65.66 5.31 66.03 5.72Q66.35 6.06 66.54 6.47Q66.87 7.14 66.87 7.96L66.91 20.64Q66.91 21.07 66.8 21.46Q66.6 22.21 66.01 22.86Q65.43 23.49 64.72 23.72ZM111.64 23.72Q111.26 23.84 110.83 23.84Q110.31 23.84 109.85 23.67Q109.22 23.44 108.72 22.9Q108.3 22.44 108.08 21.91Q107.84 21.32 107.84 20.64L107.84 7.96Q107.84 7.08 108.21 6.39Q108.41 6.02 108.72 5.7Q109.19 5.22 109.76 4.99Q110.26 4.8 110.83 4.8Q111.54 4.8 112.12 5.08Q112.58 5.31 112.96 5.72Q113.27 6.06 113.47 6.47Q113.8 7.14 113.8 7.96L113.84 20.64Q113.84 21.07 113.73 21.46Q113.52 22.21 112.94 22.86Q112.36 23.49 111.64 23.72ZM213.34 5.23L216.78 5.23Q217.37 5.23 217.89 5.43Q218.5 5.66 219 6.16Q219.53 6.68 219.76 7.31Q219.94 7.8 219.94 8.35Q219.94 9.01 219.71 9.57Q219.46 10.14 218.97 10.6Q218.35 11.19 217.62 11.4Q217.21 11.52 216.78 11.52L213.34 11.52L213.34 5.23Z" fill="#FF3D81" fill-opacity="1.000000" fill-rule="evenodd"/>
</svg>
